# xmcd
#
# Track frame offsets: 
#        150
#        18537
#        31607
#        48991
#        65824
#        81168
#        94422
#        110236
#        125344
#        140138
#        156021
#        174344
#        189606
#        204100
#
# Disc length: 2927 seconds
#
# Revision: 0
# Processed by: cddbd v1.5.2PL0 Copyright (c) Steve Scherf et al.
# Submitted via: ExactAudioCopy v1.0b3
#
DISCID=c10b6d0e
DTITLE=Zespół Korek - Sposób Na Rzeczywistość
DYEAR=2017
DGENRE=Ballad
TTITLE0=01.Bal U Pana Boga
TTITLE1=02.Tak Za Ciebie Sie Wstydzę
TTITLE2=03.Mówisz Do Mnie
TTITLE3=04.Zakątek
TTITLE4=05.Wszystko Ważne Jest
TTITLE5=06.Mleczne Ząbki
TTITLE6=07.Niechaj Idzie
TTITLE7=08.Ale Fajna Dziewczyna
TTITLE8=09.Wiem Że Nic Nie Wiem
TTITLE9=10.Rybka
TTITLE10=11.Rzeczywistość
TTITLE11=12.Czekam Na Ciebie
TTITLE12=13.Sposób Na Życie
TTITLE13=14.Herbatka
EXTD=
EXTT0=
EXTT1=
EXTT2=
EXTT3=
EXTT4=
EXTT5=
EXTT6=
EXTT7=
EXTT8=
EXTT9=
EXTT10=
EXTT11=
EXTT12=
EXTT13=
PLAYORDER=
